# xmcd
#
# Track frame offsets:
#	182
#	17302
#	39015
#	58242
#	79025
#	102090
#	114800
#	135410
#	148325
#	187107
#	212970
#	226735
#	250355
#	266630
#	285795
#	306712
#
# Disc length: 4307 seconds
#
# Revision: 0
# Processed by: cddbd v1.5.2PL0 Copyright (c) Steve Scherf et al.
# Submitted via: audiograbber 1.83.01
#
DISCID=da10d110
DTITLE=Various Artist - The Blues Is Alright: Greatest Hits
DYEAR=1989
DGENRE=Blues
TTITLE0=Bobby Bland - Get Your Money Where You Spend Your Time
TTITLE1=Z Z Hill - Open House At My House
TTITLE2=Latimore - Sunshine Lady
TTITLE3=Johnnie Taylor - I Found A Love
TTITLE4=Little Milton - Annie Mae's Cafe
TTITLE5=Ted Taylor - Steal Away
TTITLE6=Johnnie Taylor - Something Is Going Wrong
TTITLE7=Jimmy Reed - Big Boss Man
TTITLE8=Denise LaSalle - It Be's That Way Sometimes
TTITLE9=Bobby Bland - Sunday Morning Love
TTITLE10=B.B. King - Sweet Little Angel
TTITLE11=Z Z Hill - Down home Blues
TTITLE12=McKinnley Mitchell - The End Of The Rainbow
TTITLE13=Little Milton - The Blues Is Alright
TTITLE14=Denise LaSalle - Your husband Is Cheatin' On Us
TTITLE15=Dorothy Moore - Misty Blue
EXTD=
EXTT0=Bobby "Blue" Bland
EXTT1=
EXTT2=
EXTT3=
EXTT4=
EXTT5=
EXTT6=
EXTT7=
EXTT8=
EXTT9=
EXTT10=
EXTT11=
EXTT12=
EXTT13=
EXTT14=
EXTT15=
PLAYORDER=
